<svg width="70" height="21" viewBox="0 0 70 21" fill="none" xmlns="http://www.w3.org/2000/svg">
<path fill-rule="evenodd" clip-rule="evenodd" d="M10.7872 4.71088H5.62112L0.920654 0.0102184H13.6262V18.4403L8.92557 13.7396V6.57251L10.7872 4.71088ZM20.0487 16.2992L15.3482 20.9999L15.3481 0.0102184H28.0536L23.353 4.71088H18.1871L20.0487 6.57251L20.0487 16.2992ZM35.1141 7.52514V1.48632H32.3283V0.394961H39.1572V1.48632H36.3611V7.52514H35.1141ZM41.8807 7.65012C41.257 7.65012 40.7269 7.54597 40.2903 7.33807C39.8536 7.1235 39.5212 6.80478 39.2924 6.38191C39.0637 5.95904 38.9493 5.42928 38.9493 4.79144C38.9493 4.14024 39.0637 3.60655 39.2924 3.19076C39.5212 2.76828 39.8536 2.4531 40.2903 2.2452C40.7269 2.03731 41.257 1.93316 41.8807 1.93316C42.5182 1.93316 43.0515 2.03731 43.4814 2.2452C43.9176 2.4531 44.247 2.76828 44.4686 3.19076C44.6974 3.60655 44.8117 4.14024 44.8117 4.79144C44.8117 5.42928 44.6974 5.95904 44.4686 6.38191C44.247 6.80478 43.9176 7.1235 43.4814 7.33807C43.0515 7.54597 42.5182 7.65012 41.8807 7.65012ZM41.8807 6.725C42.2549 6.725 42.57 6.65897 42.8263 6.52732C43.0896 6.38898 43.2873 6.18462 43.4189 5.91424C43.5577 5.64386 43.6268 5.30077 43.6268 4.88497V4.68769C43.6268 4.2719 43.5577 3.92881 43.4189 3.65882C43.2873 3.38844 43.0896 3.18761 42.8263 3.05557C42.57 2.9243 42.2549 2.85828 41.8807 2.85828C41.5133 2.85828 41.1981 2.9243 40.9348 3.05557C40.6782 3.18761 40.4809 3.38844 40.3421 3.65882C40.2105 3.92881 40.1449 4.2719 40.1449 4.68769V4.88497C40.1449 5.30077 40.2105 5.64386 40.3421 5.91424C40.4809 6.18462 40.6782 6.38898 40.9348 6.52732C41.1981 6.65897 41.5133 6.725 41.8807 6.725ZM46.028 7.52514V2.05774H46.9634L47.0569 2.92077H47.1402C47.3065 2.67829 47.49 2.48768 47.6908 2.34896C47.8987 2.20355 48.1239 2.0994 48.3664 2.0373C48.6093 1.96774 48.8553 1.93316 49.1044 1.93316C49.5273 1.93316 49.8877 2.0094 50.1856 2.16189C50.4835 2.31437 50.6984 2.56707 50.8301 2.92077H50.913C51.0793 2.68497 51.2667 2.49436 51.4742 2.34896C51.6892 2.20355 51.9179 2.0994 52.1604 2.0373C52.41 1.96774 52.6627 1.93316 52.9193 1.93316C53.3209 1.93316 53.664 1.99918 53.9482 2.13084C54.2323 2.26249 54.4504 2.47353 54.6029 2.76475C54.7624 3.05557 54.8422 3.43677 54.8422 3.90798V7.52514H53.6884V4.11588C53.6884 3.88047 53.6609 3.68633 53.6051 3.53385C53.5497 3.37468 53.4703 3.24971 53.3661 3.15971C53.2624 3.06972 53.1374 3.00723 52.992 2.97264C52.8466 2.93806 52.687 2.92077 52.5137 2.92077C52.2504 2.92077 52.0044 2.98286 51.776 3.10783C51.5473 3.23241 51.3603 3.40926 51.2145 3.63799C51.0761 3.86671 51.0066 4.13317 51.0066 4.43813V7.52514H49.8633V4.11588C49.8633 3.88047 49.8354 3.68633 49.78 3.53385C49.7246 3.37468 49.6452 3.24971 49.5411 3.15971C49.4373 3.06972 49.3123 3.00723 49.1669 2.97264C49.0215 2.93806 48.8655 2.92077 48.6993 2.92077C48.4289 2.92077 48.1762 2.98286 47.9404 3.10783C47.7117 3.23241 47.5281 3.40926 47.3894 3.63799C47.2511 3.86671 47.1815 4.13317 47.1815 4.43813V7.52514H46.028ZM57.9603 7.65012C57.7178 7.65012 57.4753 7.62575 57.2328 7.57741C56.997 7.52868 56.7825 7.4489 56.5883 7.33807C56.3942 7.22057 56.2421 7.06101 56.1309 6.86019C56.02 6.65897 55.9646 6.40628 55.9646 6.10131C55.9646 5.68551 56.0688 5.35618 56.2767 5.1137C56.4846 4.86415 56.7789 4.67708 57.1601 4.5525C57.5413 4.42792 57.9882 4.34814 58.501 4.31356C59.0135 4.2719 59.568 4.25107 60.1638 4.25107V3.83527C60.1638 3.60655 60.119 3.41948 60.029 3.27407C59.9457 3.12866 59.8003 3.02098 59.5924 2.95181C59.3912 2.87557 59.1071 2.83745 58.74 2.83745C58.4213 2.83745 58.158 2.8685 57.9501 2.93098C57.7422 2.99347 57.5897 3.07993 57.4926 3.19076C57.3955 3.2949 57.3472 3.4128 57.3472 3.54445V3.70009H56.2244C56.2177 3.6655 56.2106 3.63445 56.204 3.60655V3.48197C56.204 3.15617 56.3077 2.87911 56.5156 2.65038C56.7235 2.41498 57.0214 2.23813 57.4093 2.12023C57.7976 1.99565 58.2652 1.93316 58.8127 1.93316C59.3672 1.93316 59.8278 1.99565 60.1953 2.12023C60.5623 2.2452 60.8394 2.43895 61.0268 2.70226C61.2139 2.95889 61.3074 3.29137 61.3074 3.70009V6.34025C61.3074 6.4719 61.335 6.56898 61.3904 6.63146C61.4529 6.69356 61.5429 6.725 61.6608 6.725H62.1076V7.48388C62.0247 7.51846 61.9068 7.55304 61.7543 7.58763C61.6089 7.62221 61.4493 7.63951 61.276 7.63951C61.0406 7.63951 60.85 7.60138 60.7046 7.52514C60.5659 7.45597 60.4621 7.3589 60.3925 7.23432C60.3234 7.10267 60.275 6.95372 60.2471 6.78748H60.1744C60.0149 6.96748 59.8211 7.1235 59.5924 7.25515C59.3708 7.38681 59.1212 7.48388 58.8437 7.54597C58.5667 7.61514 58.2723 7.65012 57.9603 7.65012ZM58.2515 6.725C58.4802 6.725 58.7089 6.69356 58.9373 6.63146C59.166 6.56898 59.3708 6.48252 59.5507 6.37169C59.7378 6.25379 59.8868 6.11153 59.9976 5.94529C60.1084 5.77905 60.1638 5.59552 60.1638 5.3943V5.041C59.5197 5.041 58.9687 5.0689 58.5113 5.12431C58.0609 5.17265 57.7178 5.26972 57.4824 5.41513C57.2466 5.56094 57.1287 5.76844 57.1287 6.03882C57.1287 6.20506 57.1774 6.34025 57.2745 6.4444C57.3782 6.54147 57.517 6.61417 57.6903 6.66251C57.8632 6.70417 58.0507 6.725 58.2515 6.725ZM57.9501 1.38218L58.9895 0.0102184H60.3096V0.041262L58.9373 1.38218H57.9501ZM65.1726 0.855559L65.9743 0H66.993L65.6627 1.41362H64.6853L63.355 0H64.3634L65.1726 0.855559ZM65.1636 7.65012C64.7686 7.65012 64.4082 7.612 64.0824 7.53575C63.7637 7.46619 63.4902 7.36244 63.2614 7.22371C63.0327 7.0783 62.8563 6.90499 62.7313 6.70417C62.6067 6.49627 62.5442 6.25733 62.5442 5.98694V5.89341C62.5513 5.86551 62.5548 5.838 62.5548 5.81009H63.7083V5.92446C63.7083 6.13943 63.7778 6.3092 63.9162 6.43378C64.0549 6.55168 64.2384 6.63814 64.4672 6.69356C64.6959 6.74229 64.9384 6.76665 65.1946 6.76665C65.4442 6.76665 65.6764 6.74582 65.8914 6.70417C66.113 6.65583 66.2895 6.57959 66.4212 6.47544C66.5599 6.37169 66.6291 6.22942 66.6291 6.04943C66.6291 5.84153 66.5528 5.68552 66.4003 5.58137C66.2482 5.47762 66.0333 5.39784 65.7562 5.34242C65.4858 5.27994 65.1773 5.21431 64.8311 5.14514C64.5469 5.08973 64.2766 5.02371 64.0203 4.94746C63.7708 4.87122 63.5456 4.77769 63.3448 4.66686C63.1506 4.54896 62.9981 4.39648 62.8873 4.20941C62.7765 4.02234 62.7211 3.79362 62.7211 3.52363C62.7211 3.26032 62.78 3.03159 62.8975 2.83745C63.0154 2.63663 63.1817 2.47039 63.3966 2.33834C63.6112 2.20708 63.8745 2.10647 64.1866 2.0373C64.4982 1.96774 64.8484 1.93316 65.2363 1.93316C65.6104 1.93316 65.9433 1.97128 66.2341 2.04752C66.532 2.11669 66.7851 2.2173 66.993 2.34896C67.2009 2.48061 67.3604 2.64016 67.4712 2.82723C67.5821 3.0143 67.6375 3.21866 67.6375 3.44031V3.54445C67.6375 3.57904 67.6339 3.60655 67.6269 3.62738H66.4836V3.55467C66.4836 3.39551 66.4282 3.26032 66.3174 3.14949C66.2133 3.03828 66.0678 2.95535 65.8808 2.89994C65.6937 2.84453 65.4721 2.81662 65.2154 2.81662C65.063 2.81662 64.9073 2.82723 64.7478 2.84806C64.5886 2.8685 64.4428 2.90348 64.3111 2.95181C64.1866 3.00015 64.0824 3.06264 63.9995 3.13888C63.9233 3.21512 63.8851 3.3122 63.8851 3.4301C63.8851 3.59633 63.9543 3.72445 64.093 3.81444C64.2384 3.90444 64.4255 3.97754 64.6542 4.03295C64.89 4.08129 65.1463 4.13317 65.4233 4.18858C65.7145 4.25107 66.0022 4.31709 66.2864 4.38626C66.5701 4.44875 66.8232 4.53874 67.0448 4.65625C67.2736 4.76747 67.4539 4.9231 67.5856 5.12431C67.7239 5.31806 67.7931 5.57823 67.7931 5.90363C67.7931 6.21567 67.731 6.48566 67.606 6.71439C67.4885 6.93643 67.3117 7.11642 67.0763 7.25515C66.8476 7.39349 66.5701 7.4941 66.2447 7.55658C65.926 7.61868 65.5656 7.65012 65.1636 7.65012ZM35.0516 17.9196V12.1924H32.3387V10.7788H39.4485V12.1924H36.7356V17.9196H35.0516ZM39.6768 17.9196V12.4416H40.9348L41.0491 13.3458H41.1321C41.2083 13.1521 41.3125 12.9788 41.4441 12.8263C41.5758 12.6667 41.7385 12.5422 41.9326 12.4522C42.1267 12.3622 42.3449 12.317 42.5873 12.317C42.7119 12.317 42.8263 12.3276 42.9304 12.348C43.0413 12.3689 43.1348 12.3932 43.211 12.4207V13.7616H42.598C42.3551 13.7616 42.1472 13.7998 41.9743 13.876C41.801 13.9456 41.6587 14.0493 41.5479 14.188C41.437 14.3197 41.3537 14.4789 41.2983 14.6659C41.2429 14.8463 41.2154 15.0436 41.2154 15.2586V17.9196H39.6768ZM44.0116 17.9196V10.394H45.5498V17.9196H44.0116ZM46.9217 17.9196V12.4416H48.4599V17.9196H46.9217ZM46.7244 11.7766L47.7635 10.394H49.4267L49.4373 10.4357L47.9714 11.7766H46.7244ZM52.6473 11.193L53.4388 10.394H54.6862L53.2828 11.8183H52.0252L50.6116 10.394H51.8488L52.6473 11.193ZM52.6595 18.0442C52.0079 18.0442 51.4538 17.9404 50.9963 17.7325C50.5389 17.5246 50.1891 17.209 49.9466 16.7866C49.7108 16.357 49.5929 15.8198 49.5929 15.1753C49.5929 14.5311 49.7144 13.9974 49.9569 13.5746C50.1993 13.1521 50.5495 12.8369 51.0066 12.629C51.464 12.4207 52.015 12.317 52.6595 12.317C53.0749 12.317 53.4561 12.3657 53.8027 12.4624C54.1494 12.5528 54.4539 12.6911 54.7173 12.8782C54.9806 13.0652 55.1818 13.301 55.3201 13.5852C55.4588 13.8622 55.528 14.188 55.528 14.5622H53.9898C53.9898 14.3197 53.9309 14.1185 53.813 13.9593C53.7021 13.7998 53.5465 13.6787 53.3453 13.5954C53.1515 13.5125 52.9193 13.4708 52.6489 13.4708C52.3231 13.4708 52.0496 13.5333 51.8279 13.6579C51.613 13.7758 51.4502 13.9558 51.3394 14.1983C51.2282 14.4341 51.1732 14.7249 51.1732 15.0715V15.2896C51.1732 15.6362 51.2282 15.9306 51.3394 16.1731C51.4502 16.4089 51.62 16.5889 51.8488 16.7139C52.0775 16.8314 52.3612 16.8903 52.7008 16.8903C52.9641 16.8903 53.1963 16.849 53.3972 16.7657C53.5984 16.6757 53.7575 16.5476 53.8754 16.381C53.9933 16.2147 54.0523 16.021 54.0523 15.7989H55.528C55.528 16.1664 55.4553 16.4922 55.3099 16.7759C55.1712 17.0534 54.9739 17.2888 54.7173 17.4829C54.461 17.67 54.1561 17.8123 53.8027 17.909C53.4561 17.999 53.0749 18.0442 52.6595 18.0442ZM59.5716 18.0442C58.9062 18.0442 58.338 17.9439 57.8667 17.7427C57.4026 17.5348 57.0458 17.2196 56.7962 16.7968C56.5537 16.3743 56.4323 15.8371 56.4323 15.1859C56.4323 14.5343 56.5537 13.9974 56.7962 13.5746C57.0387 13.1521 57.392 12.8369 57.8565 12.629C58.3207 12.4207 58.8752 12.317 59.5197 12.317C60.1709 12.317 60.7183 12.4207 61.1616 12.629C61.6124 12.8298 61.952 13.138 62.1803 13.5537C62.409 13.9629 62.5234 14.4789 62.5234 15.1026V15.529H58.0125C58.033 15.8477 58.1025 16.111 58.2204 16.3189C58.338 16.5268 58.5113 16.6824 58.74 16.7866C58.9687 16.8836 59.2528 16.932 59.5924 16.932C59.7516 16.932 59.9111 16.9147 60.0703 16.8801C60.2369 16.8384 60.3823 16.7795 60.5069 16.7032C60.6386 16.627 60.7462 16.5303 60.8292 16.4124C60.9125 16.2945 60.9573 16.1558 60.9644 15.9966H62.5026C62.5026 16.3154 62.4334 16.603 62.2947 16.8593C62.1563 17.1088 61.9587 17.3234 61.7024 17.5038C61.4458 17.6771 61.1377 17.8123 60.7773 17.909C60.4169 17.999 60.0149 18.0442 59.5716 18.0442ZM58.0228 14.583H60.9125C60.9125 14.3822 60.8775 14.2124 60.8083 14.0737C60.7392 13.9283 60.6421 13.8104 60.5175 13.7204C60.3996 13.6233 60.2574 13.5537 60.0911 13.5125C59.932 13.4637 59.7516 13.4398 59.5507 13.4398C59.2529 13.4398 58.9931 13.481 58.771 13.5644C58.5565 13.6473 58.3867 13.7758 58.2617 13.9491C58.1371 14.122 58.0574 14.3335 58.0228 14.583ZM63.6462 17.9196V10.394H65.1844V14.7701L67.5125 12.4416H69.3627L67.2634 14.6038L69.4461 17.9196H67.6583L66.172 15.5911L65.1844 16.4018V17.9196H63.6462Z" fill="#B4CCC9" style="fill:#B4CCC9;fill:color(display-p3 0.7059 0.8000 0.7882);fill-opacity:1;"/>
</svg>
