<svg width="108" height="17" viewBox="0 0 108 17" fill="none" xmlns="http://www.w3.org/2000/svg">
<path fill-rule="evenodd" clip-rule="evenodd" d="M24.3862 4.53154L20.2803 16.1994L17.5513 16.1994L23.3847 0.800438L25.6884 0.800438L31.3745 16.1996H28.6202L24.3862 4.53154ZM32.5011 0.800438L34.454 0.800438L43.0427 12.2441L43.0927 0.800438L45.6467 0.800438L45.6467 16.1994H43.3402L35.1051 5.28288L35.0802 16.1994H32.5011L32.5011 0.800438ZM52.8841 16.1994H50.5556L50.5556 2.97946L47.1753 2.97946L47.1743 0.800438L56.2634 0.800438L56.2644 2.97946L52.8841 2.97946L52.8841 16.1994ZM55.9144 16.1994L58.2997 0.800438L60.2029 0.800438L64.2945 11.2422L67.9647 0.801397L69.8677 0.801397L72.253 16.1994H69.6735L68.0645 6.53308L64.5257 16.1994H63.6167L60.1877 6.1092L58.4941 16.1994H55.9144ZM80.0382 0.5C84.191 0.5 87.5624 4.08464 87.5624 8.49992C87.5624 12.9152 84.191 16.5 80.0382 16.5C75.8856 16.5 72.5141 12.9152 72.5141 8.49992C72.5141 4.08464 75.8856 0.5 80.0382 0.5ZM80.0382 3.02918C77.3579 3.02918 75.1818 5.4805 75.1818 8.49992C75.1818 11.5193 77.3579 13.9707 80.0382 13.9707C82.7187 13.9707 84.8948 11.5193 84.8948 8.49992C84.8948 5.4805 82.7187 3.02918 80.0382 3.02918ZM81.0754 5.24018C81.9777 5.24002 82.7105 5.97298 82.71 6.87461C82.7104 7.77705 81.9774 8.5092 81.0754 8.50936C80.1727 8.50888 79.4404 7.7764 79.4408 6.87477C79.4405 5.97233 80.1735 5.24034 81.0754 5.24018ZM98.9331 16.1984L95.9875 16.1984L91.6814 9.58863L91.656 16.1984H89.0774V0.800438L93.1083 0.800438C96.9859 0.799639 98.1908 2.9785 98.1908 5.73889C98.1908 6.96799 97.504 8.4721 96.3302 9.18154C95.7327 9.54258 95.2154 9.58863 94.5173 9.58863L98.9331 16.1984ZM92.8506 2.9785H91.656V8.49944L92.8506 8.49944C93.5827 8.49944 94.2848 8.20859 94.8026 7.69086C95.3201 7.17313 95.611 6.47104 95.611 5.73889C95.611 5.00674 95.3201 4.30465 94.8026 3.78692C94.2848 3.26919 93.5827 2.9785 92.8506 2.9785ZM102.638 9.58975V14.0213L107.921 14.0213V16.1994L100.06 16.1994V0.800438L107.768 0.800438V2.9785L102.638 2.9785V7.41073L106.886 7.41073V9.58975L102.638 9.58975ZM5.03455 16.1994L0 0.800438L2.70411 0.800438L6.04875 12.043L9.39339 0.800438L10.8634 0.800438L14.2081 12.043L17.5526 0.800438L20.2568 0.800438L15.2221 16.1994H13.1939L10.1284 5.85769L7.06247 16.1994H5.03455Z" fill="#B4CCC9" style="fill:#B4CCC9;fill:color(display-p3 0.7059 0.8000 0.7882);fill-opacity:1;"/>
</svg>
