<svg width="80" height="19" viewBox="0 0 80 19" fill="none" xmlns="http://www.w3.org/2000/svg">
<path fill-rule="evenodd" clip-rule="evenodd" d="M53.0711 10.9085L55.7214 18.2334H52.5254L51.7838 16.0439H47.1576L46.416 18.2334H43.2553L45.9043 10.9122C45.0464 10.8492 44.6692 10.2642 44.6818 9.71814C44.6951 9.14327 45.1482 8.54149 46.0529 8.55267C46.768 8.5615 48.6315 8.55351 48.8161 8.55259C48.8848 8.54494 49.3233 8.48179 49.5966 8.09837C49.7315 7.9091 49.8215 7.64374 49.8223 7.27756C49.8228 7.09191 49.9738 6.94157 50.1594 6.94199C50.3451 6.94241 50.4954 7.09351 50.495 7.27916C50.4937 7.8209 50.344 8.20869 50.1444 8.48877C49.6608 9.16723 48.8563 9.22441 48.8563 9.22441C48.8486 9.22491 48.8409 9.22525 48.8332 9.22525C48.8332 9.22525 46.8003 9.23458 46.0446 9.22525C45.6136 9.21995 45.3606 9.45984 45.3543 9.73369C45.348 10.0073 45.5948 10.2425 46.0507 10.2451C47.2414 10.2521 52.9919 10.2451 52.9919 10.2451C53.1776 10.2448 53.3285 10.3954 53.3287 10.581C53.3289 10.7397 53.219 10.8729 53.0711 10.9085ZM48.8866 10.9208L47.9522 13.7131H51.0069L50.0589 10.9203C49.6723 10.9205 49.2752 10.9207 48.8866 10.9208ZM59.5652 5.8733V18.2334H56.5382V5.8733H59.5652ZM38.5853 15.9294H42.5405V18.2601H35.5659V5.86473H38.5853V15.9294ZM32.97 5.88238V18.2425H29.943V5.88238H32.97ZM24.5352 9.78481C24.3116 9.37281 23.9908 9.05792 23.5729 8.84015C23.155 8.62238 22.6636 8.51349 22.0985 8.51349C21.1215 8.51349 20.3387 8.83426 19.7501 9.47581C19.1615 10.1174 18.8672 10.9737 18.8672 12.0449C18.8672 13.1868 19.1762 14.0785 19.7942 14.72C20.4123 15.3616 21.2627 15.6824 22.3457 15.6824C23.0873 15.6824 23.7142 15.494 24.2262 15.1173C24.7383 14.7406 25.112 14.1991 25.3475 13.4928H21.5158V11.268H28.0843C28.0843 11.268 28.0833 13.2457 27.8935 14.0639C27.719 14.8158 27.4024 15.4991 26.8668 16.1466C26.3311 16.794 25.73 17.348 24.906 17.7483C24.082 18.1485 23.1521 18.3486 22.1162 18.3486C20.8919 18.3486 19.8001 18.0808 18.8408 17.5452C17.8814 17.0096 17.1339 16.265 16.5983 15.3115C16.0627 14.3581 15.7949 13.2692 15.7949 12.0449C15.7949 10.8207 16.0627 9.7289 16.5983 8.76952C17.1339 7.81014 17.8784 7.06265 18.8319 6.52704C19.7854 5.99144 20.8743 5.72364 22.0985 5.72364C23.5817 5.72364 24.8325 6.08267 25.8507 6.80073C26.8689 7.51879 27.5429 8.51349 27.8725 9.78481C26.7611 9.81189 25.6477 9.78809 24.5352 9.78481ZM13.9251 5.91156V18.2717H10.8982V5.91156H13.9251ZM3.42551 15.7618H8.75802V18.2338H0V15.9384L5.29719 8.31043H0V5.83841H8.75802V8.13386L3.42551 15.7618ZM60.132 8.27898V5.87137H62.6583C63.9118 5.87137 64.893 6.15834 65.6018 6.73246C66.3106 7.30657 66.665 8.08559 66.665 9.06978C66.665 9.79617 66.4747 10.3995 66.0939 10.8799C65.7131 11.3602 65.2064 11.6941 64.5737 11.8816C65.2884 12.0338 65.8625 12.3883 66.296 12.9448C66.7294 13.5013 66.9462 14.1368 66.9462 14.8515C66.9462 15.8826 66.5859 16.6997 65.8654 17.303C65.1449 17.9064 64.1403 18.2081 62.8516 18.2081L60.132 18.2316V15.7829H62.3243C62.8281 15.7829 63.2177 15.6687 63.4929 15.4403C63.7683 15.2118 63.906 14.8808 63.906 14.4473C63.906 14.0138 63.7624 13.6741 63.4754 13.428C63.1884 13.182 62.793 13.059 62.2891 13.059H60.132V10.8623H62.0783C62.5703 10.8623 62.9482 10.7539 63.2118 10.5372C63.4754 10.3204 63.6072 10.0012 63.6072 9.5794C63.6072 9.15764 63.4754 8.83544 63.2118 8.61287C62.9482 8.39022 62.5703 8.27898 62.0783 8.27898H60.132ZM73.5021 5.95318C74.8088 5.95318 75.9506 6.21215 76.9276 6.7301C77.9047 7.24805 78.661 7.97494 79.1966 8.91078C79.7322 9.84661 80 10.9267 80 12.1509C80 13.3634 79.7322 14.4405 79.1966 15.3822C78.661 16.3239 77.9017 17.0537 76.9188 17.5717C75.9359 18.0896 74.797 18.3486 73.5021 18.3486H68.8582V5.95318H73.5021ZM73.3079 15.7353C74.4497 15.7353 75.3385 15.4234 75.9741 14.7995C76.6098 14.1756 76.9276 13.2927 76.9276 12.1509C76.9276 11.0091 76.6098 10.1203 75.9741 9.48464C75.3385 8.84898 74.4497 8.53115 73.3079 8.53115H71.8776V15.7353H73.3079ZM48.1617 1.48446V2.82977H43.4531V1.48446H48.1617ZM51.8828 0.651367V4.4328C51.8828 4.66571 51.6939 4.85448 51.461 4.85448H48.8972C48.7867 4.85448 48.6809 4.81059 48.6028 4.73256C48.5247 4.65453 48.481 4.54867 48.481 4.43818V0.651367H51.8828ZM56.1495 1.48446V2.82977H52.1977V1.48446H56.1495ZM50.7669 5.18273C50.7669 5.18273 50.8 5.62299 50.7288 5.90559C50.6377 6.26672 50.378 6.62828 50.378 6.62828H49.9822C49.9822 6.62828 49.7651 6.44086 49.6228 5.90559C49.5588 5.66444 49.5933 5.18273 49.5933 5.18273H50.7669Z" fill="#B4CCC9" style="fill:#B4CCC9;fill:color(display-p3 0.7059 0.8000 0.7882);fill-opacity:1;"/>
</svg>
